# xmcd
#
# Track frame offsets:
#	150
#	13189
#	27223
#	40694
#	54233
#	68024
#	78524
#	92989
#	108832
#	120532
#	132293
#	144164
#	155566
#	166428
#	175315
#	186515
#	200077
#	210741
#	219959
#	235741
#	252496
#	267042
#	280005
#	291672
#	304450
#	315748
#
# Disc length: 4370 seconds
#
# Revision: 1
# Processed by: cddbd v1.5.1PL2 Copyright (c) Steve Scherf et al.
# Submitted via: audiograbber 1.83.01
#
DISCID=8011101a
DTITLE=B.B. King - Woke Up This Morning
DYEAR=2003
DGENRE=Blues
TTITLE0=Please Love Me
TTITLE1=You Know I Love You
TTITLE2=Woke Up This Morning
TTITLE3=Story from My Heart and Soul
TTITLE4=Three O'Clock Blues
TTITLE5=That Ain't the Way to Do It
TTITLE6=She Don't Move Me No More
TTITLE7=My Own Fault, Darlin'
TTITLE8=She's a Mean Woman
TTITLE9=Hard Workin' Woman
TTITLE10=Shake It Up and Go
TTITLE11=She's Dynamite
TTITLE12=Fine Lookin' Woman
TTITLE13=A New Way of Driving
TTITLE14=B.B. Blues
TTITLE15=Questionnaire Blues
TTITLE16=Don't You Want a Man Like Me
TTITLE17=My Baby's Gone
TTITLE18=Walkin' and Cryin'
TTITLE19=The Other Night Blues
TTITLE20=B.B. Boogie
TTITLE21=Mistreated Woman
TTITLE22=Take a Swing With Me
TTITLE23=Got the Blues
TTITLE24=When Your Baby Packs Up and Goes
TTITLE25=Miss Martha King
EXTD=
EXTT0=
EXTT1=
EXTT2=
EXTT3=
EXTT4=
EXTT5=
EXTT6=
EXTT7=
EXTT8=
EXTT9=
EXTT10=
EXTT11=
EXTT12=
EXTT13=
EXTT14=
EXTT15=
EXTT16=
EXTT17=
EXTT18=
EXTT19=
EXTT20=
EXTT21=
EXTT22=
EXTT23=
EXTT24=
EXTT25=
PLAYORDER=
